<svg width="16" height="16" viewBox="0 0 16 16" fill="none" xmlns="http://www.w3.org/2000/svg">
<path d="M14.6876 9.88315L14.6805 9.87605C14.6476 9.84348 14.6134 9.81138 14.5785 9.77958C14.5662 9.76847 14.5535 9.75735 14.5408 9.74663C14.5376 9.74346 14.5344 9.7403 14.5309 9.73752C13.7898 9.10412 12.8328 9.01081 11.9029 8.92112C11.8735 8.91835 11.8445 8.91557 11.8151 8.91279C11.3599 8.86872 9.52092 8.74531 8.49293 7.99992C9.53204 7.25215 11.4396 7.11998 11.8151 7.08624C11.8501 7.08426 11.885 7.08188 11.9203 7.0799C12.821 7.02116 13.7914 6.89494 14.5301 6.26228C14.5329 6.25991 14.5356 6.25792 14.5384 6.25514C14.5868 6.21267 14.6344 6.16822 14.6805 6.12337L14.6876 6.11622C15.308 5.50064 15.6922 4.64731 15.6922 3.70428V0.847867C15.6922 0.549495 15.4503 0.307617 15.152 0.307617H12.2958C11.3527 0.307617 10.4994 0.691815 9.88368 1.31217L9.87658 1.31931C9.84401 1.35225 9.8119 1.38639 9.7801 1.42131C9.76899 1.43362 9.75788 1.44632 9.74715 1.45902C9.74398 1.46219 9.74082 1.46537 9.73804 1.46895C9.1046 2.20995 9.01129 3.16687 8.9216 4.09681C8.91882 4.12618 8.91604 4.15515 8.91326 4.18452C8.86919 4.63936 8.74578 6.4774 8.00112 7.50537C7.27516 6.50519 7.17434 4.8533 7.10369 4.20158C7.1013 4.11189 7.09774 4.02299 7.09376 3.93487C7.05685 3.17958 6.94214 2.49413 6.58015 1.89442C6.44956 1.68763 6.29754 1.49553 6.12647 1.32209C5.51006 0.69618 4.65271 0.307617 3.70446 0.307617H0.847897C0.549509 0.307617 0.307617 0.549496 0.307617 0.847867V3.70388C0.307617 4.65246 0.696202 5.50976 1.32294 6.12575C1.52933 6.32936 1.76154 6.50558 2.01398 6.65125C2.02033 6.65482 2.02708 6.65879 2.03382 6.66236C2.58991 6.95964 3.21466 7.05291 3.9565 7.0922C4.03668 7.09657 4.11885 7.10054 4.2022 7.10371C4.79401 7.16563 6.49441 7.27398 7.50378 8.00069C6.50355 8.72501 4.85315 8.82589 4.2022 8.8965C4.1125 8.8989 4.02358 8.90245 3.93547 8.90646C3.18013 8.94335 2.49465 9.05804 1.8949 9.42001C1.68811 9.55059 1.496 9.70263 1.32255 9.87366C0.696202 10.4896 0.307617 11.3469 0.307617 12.2951V15.1515C0.307617 15.4499 0.549509 15.6918 0.847897 15.6918H3.70406C4.65231 15.6918 5.50965 15.3036 6.12567 14.6769C6.3293 14.4706 6.50553 14.2383 6.6512 13.9859C6.65477 13.9796 6.65874 13.9728 6.66231 13.9661C6.9596 13.4101 7.05289 12.7853 7.09218 12.0435C7.09654 11.9633 7.10052 11.8812 7.10369 11.7978C7.1656 11.2061 7.27397 9.50498 8.00112 8.49564C8.74732 9.53508 8.87953 11.4402 8.91326 11.8153C8.91527 11.8502 8.91759 11.8852 8.91959 11.9204C8.97833 12.821 9.1046 13.7915 9.73727 14.5301C9.73966 14.5329 9.74159 14.5356 9.74437 14.5384C9.7869 14.5868 9.83135 14.6344 9.8762 14.6805L9.8833 14.6877C10.4989 15.308 11.3523 15.6922 12.2954 15.6922H15.1516C15.45 15.6922 15.6918 15.4503 15.6918 15.152V12.2959C15.6918 11.3529 15.3076 10.4996 14.6872 9.884L14.6876 9.88315Z" fill="#9FA432"/>
</svg>
